<svg width="234" height="317" xmlns="http://www.w3.org/2000/svg" xmlns:xlink="http://www.w3.org/1999/xlink" xml:space="preserve" overflow="hidden"><defs><clipPath id="clip0"><rect x="2818" y="849" width="234" height="317"/></clipPath><clipPath id="clip1"><rect x="2818" y="1007" width="235" height="159"/></clipPath><clipPath id="clip2"><rect x="2818" y="1007" width="235" height="159"/></clipPath><clipPath id="clip3"><rect x="2818" y="1007" width="235" height="159"/></clipPath><clipPath id="clip4"><rect x="2818" y="849" width="235" height="159"/></clipPath><clipPath id="clip5"><rect x="2818" y="849" width="235" height="159"/></clipPath><clipPath id="clip6"><rect x="2818" y="849" width="235" height="159"/></clipPath></defs><g clip-path="url(#clip0)" transform="translate(-2818 -849)"><g clip-path="url(#clip1)"><g clip-path="url(#clip2)"><g clip-path="url(#clip3)"><path d="M220.529 89.3044C226.22 89.3044 230.833 84.6912 230.833 79.0001 230.833 73.309 226.22 68.6957 220.529 68.6957L220.529 89.3044ZM3.01813 71.7139C-1.00597 75.7381-1.00597 82.2621 3.01813 86.2863L68.5947 151.863C72.6189 155.887 79.1429 155.887 83.1671 151.863 87.1913 147.839 87.1913 141.314 83.1671 137.29L24.877 79.0001 83.1671 20.7098C87.1913 16.6857 87.1913 10.1614 83.1671 6.13727 79.1429 2.11316 72.6189 2.11316 68.5947 6.13727L3.01813 71.7139ZM220.529 68.6957 10.3044 68.6957 10.3044 89.3044 220.529 89.3044 220.529 68.6957Z" fill="#FFFFFF" transform="matrix(1.00186 0 0 1 2818 1008)"/></g></g></g><g clip-path="url(#clip4)"><g clip-path="url(#clip5)"><g clip-path="url(#clip6)"><path d="M10.3235 68.8236C4.62202 68.8236 0 73.4454 0 79.1471 0 84.8488 4.62202 89.4706 10.3235 89.4706L10.3235 68.8236ZM228.239 86.4469C232.271 82.4152 232.271 75.879 228.239 71.8473L162.541 6.1487C158.509 2.1171 151.972 2.1171 147.941 6.1487 143.909 10.1803 143.909 16.7168 147.941 20.7484L206.34 79.1471 147.941 137.546C143.909 141.577 143.909 148.114 147.941 152.145 151.972 156.177 158.509 156.177 162.541 152.145L228.239 86.4469ZM10.3235 89.4706 220.939 89.4706 220.939 68.8236 10.3235 68.8236 10.3235 89.4706Z" fill="#FFFFFF" transform="matrix(1 0 0 1.00446 2818 849)"/></g></g></g></g></svg>