<svg width="23" height="25" viewBox="0 0 23 25" fill="none" xmlns="http://www.w3.org/2000/svg">
<path d="M6.52857 8.68573C6.93359 7.56442 7.66842 6.60083 8.63094 5.92884C9.59347 5.25685 10.7359 4.90984 11.8995 4.93601C11.9525 4.66382 12.0623 4.40673 12.2214 4.18246C12.3805 3.9582 12.5851 3.77212 12.821 3.63704C13.0569 3.50197 13.3185 3.42113 13.5878 3.40009C13.8571 3.37905 14.1277 3.41832 14.3808 3.51519C14.634 3.61206 14.8637 3.76423 15.0542 3.96118C15.2447 4.15814 15.3913 4.3952 15.484 4.65601C15.5767 4.91682 15.6133 5.19516 15.5912 5.47185C15.5691 5.74853 15.4889 6.01696 15.356 6.25861C16.2511 7.02188 16.8932 8.05241 17.193 9.20729C17.4929 10.3622 17.4358 11.5841 17.0295 12.7038L15.0779 18.0996L17.0526 20.9028L16.7273 21.8021L0.975834 15.775L1.30111 14.8757L4.57691 14.0816L6.52857 8.68573ZM10.2765 20.3575C10.1039 20.8346 9.75405 21.2215 9.30383 21.4332C8.85361 21.6449 8.33991 21.6641 7.87574 21.4865C7.41156 21.3089 7.03494 20.949 6.82873 20.4861C6.62251 20.0233 6.60359 19.4952 6.77613 19.0182L10.2765 20.3575Z" fill="white"/>
<ellipse cx="18.3648" cy="8.37036" rx="3.89554" ry="4.14981" fill="#ED4C4C"/>
</svg>
