<svg width="82" height="76" viewBox="0 0 82 76" fill="none" xmlns="http://www.w3.org/2000/svg">
<path d="M3.08301 73H78.9163M8.91634 3V73M49.7497 3V73M73.083 20.5V73M20.583 17.5833H23.4997M20.583 29.25H23.4997M20.583 40.9167H23.4997M35.1663 17.5833H38.083M35.1663 29.25H38.083M35.1663 40.9167H38.083M20.583 73V59.875C20.583 57.4588 22.5418 55.5 24.958 55.5H33.708C36.1243 55.5 38.083 57.4588 38.083 59.875V73M5.99967 3H52.6663M49.7497 20.5H75.9997M61.4163 35.0833H61.4455V35.1125H61.4163V35.0833ZM61.4163 46.75H61.4455V46.7792H61.4163V46.75ZM61.4163 58.4167H61.4455V58.4458H61.4163V58.4167Z" stroke="white" stroke-width="5" stroke-linecap="round" stroke-linejoin="round"/>
</svg>
