<svg width="62" height="62" viewBox="0 0 62 62" fill="none" xmlns="http://www.w3.org/2000/svg">
<path d="M0 6.2C0 2.79 2.79 0 6.2 0H55.8C57.4443 0 59.0213 0.653212 60.1841 1.81594C61.3468 2.97866 62 4.55566 62 6.2V55.8C62 57.4443 61.3468 59.0213 60.1841 60.1841C59.0213 61.3468 57.4443 62 55.8 62H6.2C4.55566 62 2.97866 61.3468 1.81594 60.1841C0.653212 59.0213 0 57.4443 0 55.8V6.2ZM43.4 43.4H55.8V6.2H6.2V43.4H18.6C18.6 46.81 21.39 49.6 24.8 49.6H37.2C38.8443 49.6 40.4213 48.9468 41.5841 47.7841C42.7468 46.6213 43.4 45.0443 43.4 43.4ZM27.9 24.8V15.5H34.1V24.8H43.4L31 37.2L18.6 24.8H27.9Z" fill="white"/>
</svg>
